<svg width="40" height="40" viewBox="0 0 40 40" fill="none" xmlns="http://www.w3.org/2000/svg">
<path d="M19.9688 0C30.979 0.000146909 39.9365 8.95847 39.9365 19.9688C39.9365 30.9791 30.9791 39.9374 19.9688 39.9375C8.95831 39.9375 0 30.9792 0 19.9688C7.24223e-05 8.95838 8.95836 0 19.9688 0ZM27.7725 35.5791C22.9099 33.1769 17.0266 33.1769 12.1641 35.5791C14.5165 36.7601 17.1621 37.4414 19.9688 37.4414C22.7753 37.4414 25.4202 36.7601 27.7725 35.5791ZM21.2168 6.24023H18.7207V2.55957C15.1552 2.81333 11.8864 4.13563 9.22852 6.21582L12.0254 9.01367L10.2607 10.7783L7.37305 7.89062C4.90636 10.4619 3.227 13.7813 2.69531 17.4727H7.48828V19.9688H2.49609C2.49609 25.774 5.35291 30.9128 9.72266 34.0918C15.94 30.3775 23.9966 30.3775 30.2139 34.0918C34.5838 30.9128 37.4413 25.7742 37.4414 19.9688H32.4492V17.4727H37.2412C36.7095 13.7812 35.0302 10.4619 32.5635 7.89062L29.6758 10.7783L27.9111 9.01367L30.709 6.21582C28.051 4.13558 24.7823 2.81346 21.2168 2.55957V6.24023ZM18.7803 10.8516C19.1117 9.81801 20.8248 9.81801 21.1562 10.8516C21.7914 12.83 24.9609 22.8061 24.9609 24.9609C24.9609 27.714 22.7219 29.953 19.9688 29.9531C17.2156 29.9531 14.9766 27.7142 14.9766 24.9609C14.9766 22.8062 18.145 12.8303 18.7803 10.8516ZM19.9688 15.418C18.7354 19.4654 17.4727 23.9407 17.4727 24.9609C17.4727 26.337 18.5927 27.457 19.9688 27.457C21.3446 27.4569 22.4648 26.3369 22.4648 24.9609C22.4648 23.9407 21.2021 19.4654 19.9688 15.418Z" fill="#2BD0D0"/>
</svg>
